<svg width="220" height="96" viewBox="0 0 220 96" fill="none" xmlns="http://www.w3.org/2000/svg">
<path d="M23.8356 50.44C23.4516 50.056 23.1396 49.76 22.8996 49.552C22.6596 49.328 22.4516 49.136 22.2756 48.976C22.0836 48.816 21.8676 48.656 21.6276 48.496V48.256C21.7396 48.08 21.8996 47.864 22.1076 47.608C22.3156 47.352 22.5476 47.096 22.8036 46.84C23.0436 46.568 23.2676 46.328 23.4756 46.12C23.6836 45.912 23.8356 45.776 23.9316 45.712H24.1716C24.5876 45.968 24.9236 46.208 25.1796 46.432C25.4356 46.64 25.6436 46.832 25.8036 47.008C26.1396 46.608 26.4676 46.248 26.7876 45.928C27.1076 45.592 27.3396 45.376 27.4836 45.28H27.7236C28.3796 45.696 28.8836 46.072 29.2356 46.408C29.6036 46.744 29.7876 47.104 29.7876 47.488C29.7876 47.888 29.5556 48.312 29.0916 48.76C28.6436 49.208 28.1396 49.624 27.5796 50.008H27.3876C27.0516 49.688 26.7716 49.432 26.5476 49.24C26.3396 49.032 26.1396 48.848 25.9476 48.688C25.5956 49.232 24.9556 49.816 24.0276 50.44H23.8356ZM19.7646 62.648C18.6286 62.648 17.5566 62.56 16.5486 62.384C15.5406 62.224 14.6526 61.936 13.8846 61.52C13.1326 61.104 12.5406 60.544 12.1086 59.84C11.6766 59.12 11.4606 58.216 11.4606 57.128C11.4606 55.8 11.7166 54.32 12.2286 52.688L13.0686 52.808C13.0526 52.952 13.0286 53.104 12.9966 53.264C12.9806 53.408 12.9726 53.64 12.9726 53.96C13.0046 55.336 13.6686 56.24 14.9646 56.672C16.2926 57.104 18.1886 57.32 20.6526 57.32C22.0126 57.32 23.3806 57.24 24.7566 57.08C26.1486 56.92 27.4846 56.704 28.7646 56.432C30.0446 56.144 31.2126 55.824 32.2686 55.472C33.3406 55.104 34.2366 54.728 34.9566 54.344C36.5086 53.512 37.7006 52.184 38.5326 50.36L39.3246 50.504L39.0606 51.512C39.3646 51.736 39.7886 51.904 40.3326 52.016C40.8926 52.112 41.5006 52.16 42.1566 52.16C42.7966 52.16 43.1166 52.8 43.1166 54.08C43.1166 54.736 43.0206 55.256 42.8286 55.64C42.6526 56.024 42.4286 56.304 42.1566 56.48C41.8846 56.64 41.6126 56.72 41.3406 56.72C40.3646 56.72 39.6206 56.48 39.1086 56C38.6126 55.504 38.3006 54.888 38.1726 54.152C37.5646 55.544 36.8286 56.704 35.9646 57.632C35.1166 58.56 34.0846 59.328 32.8686 59.936C31.6526 60.544 30.2046 61.072 28.5246 61.52C25.6926 62.272 22.7726 62.648 19.7646 62.648ZM41.3398 57C41.0038 57 40.7638 56.808 40.6198 56.424C40.4598 56.024 40.3798 55.576 40.3798 55.08C40.3798 54.184 40.5558 53.52 40.9078 53.088C41.2598 52.656 41.6758 52.44 42.1558 52.44C43.8838 52.44 45.3078 51.56 46.4278 49.8C46.7638 49.272 47.0118 48.888 47.1718 48.648C47.3478 48.392 47.4998 48.232 47.6278 48.168C47.7718 48.088 47.9398 48.048 48.1318 48.048C48.3718 48.048 48.6438 48.12 48.9478 48.264C49.2678 48.408 49.6038 48.48 49.9558 48.48C50.4678 48.48 50.9158 48.344 51.2998 48.072C51.6838 47.784 52.0118 47.392 52.2838 46.896L52.6198 46.824C52.7638 46.936 52.9638 47.024 53.2198 47.088C53.4758 47.136 53.7398 47.16 54.0118 47.16C54.5398 47.16 54.9878 46.936 55.3558 46.488C55.7238 46.024 56.0038 45.392 56.1958 44.592L57.0598 44.688C56.7878 46.304 56.4598 47.6 56.0758 48.576C55.7078 49.552 55.2758 50.256 54.7798 50.688C54.2998 51.104 53.7558 51.312 53.1478 51.312C52.9878 51.312 52.7958 51.296 52.5718 51.264C52.3478 51.216 52.0998 51.144 51.8278 51.048C51.3798 51.864 50.8998 52.4 50.3878 52.656C49.8758 52.912 49.4358 53.04 49.0678 53.04C48.5398 53.04 48.0598 52.888 47.6278 52.584C47.2278 52.296 46.9318 52.152 46.7398 52.152C46.5158 52.152 46.1718 52.576 45.7078 53.424C45.1478 54.464 44.5238 55.32 43.8358 55.992C43.1638 56.664 42.3318 57 41.3398 57ZM53.8708 72.584L53.1748 71.84C54.4868 70.704 55.8228 69.232 57.1828 67.424C58.5268 65.632 59.8868 63.504 61.2628 61.04C64.0148 56.128 66.6628 53.672 69.2068 53.672C69.6068 53.672 69.9428 53.76 70.2148 53.936C70.4868 54.112 70.6228 54.48 70.6228 55.04C70.6228 55.76 70.4628 56.376 70.1428 56.888C69.8228 57.4 69.4228 57.792 68.9428 58.064C68.4628 58.336 67.9828 58.472 67.5028 58.472C66.5428 58.472 65.6148 58.856 64.7188 59.624C63.8548 60.376 62.4548 62.2 60.5188 65.096C58.5828 67.992 56.3668 70.488 53.8708 72.584ZM69.3004 74.24C68.7084 74.24 68.2364 74.032 67.8844 73.616C67.5324 73.2 67.3564 72.592 67.3564 71.792C67.3564 71.248 67.4284 70.624 67.5724 69.92C67.7324 69.232 67.9404 68.528 68.1964 67.808C68.4684 67.088 68.7644 66.416 69.0844 65.792L69.9004 66.008C69.7404 66.36 69.5964 66.856 69.4684 67.496C69.3404 68.136 69.2764 68.736 69.2764 69.296C69.2764 69.696 69.3164 70.024 69.3964 70.28C69.4924 70.552 69.6444 70.72 69.8524 70.784L70.5244 69.392C70.6364 69.328 70.7564 69.296 70.8844 69.296C71.3004 69.296 71.5804 69.456 71.7244 69.776C71.8844 70.112 71.9644 70.528 71.9644 71.024C71.9644 71.52 71.8604 72.016 71.6524 72.512C71.4444 73.008 71.1404 73.416 70.7404 73.736C70.3404 74.072 69.8604 74.24 69.3004 74.24ZM70.5681 64.208L69.7521 64.04C69.9281 63.448 70.0161 62.68 70.0161 61.736C70.0161 60.92 69.8081 60.256 69.3921 59.744C68.9761 59.248 68.3441 59 67.4961 59C67.2721 59 67.0561 58.88 66.8481 58.64C66.6241 58.384 66.5121 57.984 66.5121 57.44C66.5121 56.912 66.6321 56.4 66.8721 55.904C67.0961 55.408 67.4081 55 67.8081 54.68C68.2081 54.36 68.6721 54.2 69.2001 54.2C70.2241 54.2 71.0321 54.472 71.6241 55.016C72.2321 55.56 72.5361 56.352 72.5361 57.392C72.5361 57.552 72.5201 57.72 72.4881 57.896C72.4721 58.056 72.4481 58.272 72.4161 58.544C72.5441 58.544 72.6401 58.584 72.7041 58.664C72.7681 58.744 72.8001 58.832 72.8001 58.928C72.8001 58.992 72.7441 59.144 72.6321 59.384C72.5201 59.624 72.3361 59.952 72.0801 60.368C71.5841 61.2 71.0801 62.48 70.5681 64.208ZM74.2198 43.248C73.7878 42.832 73.4598 42.52 73.2358 42.312C72.9958 42.088 72.7958 41.904 72.6358 41.76C72.4598 41.616 72.2518 41.464 72.0118 41.304V41.064C72.1238 40.888 72.2838 40.672 72.4918 40.416C72.6998 40.16 72.9318 39.904 73.1878 39.648C73.4278 39.376 73.6518 39.136 73.8598 38.928C74.0678 38.72 74.2198 38.584 74.3158 38.52H74.5558C75.2118 38.936 75.7158 39.312 76.0678 39.648C76.4358 39.984 76.6198 40.344 76.6198 40.728C76.6198 41.128 76.3878 41.552 75.9238 42C75.4758 42.448 74.9718 42.864 74.4118 43.248H74.2198ZM71.1175 61.064C70.8775 61.064 70.7575 60.96 70.7575 60.752C70.7575 60.592 70.8135 60.328 70.9255 59.96C71.0375 59.608 71.1815 59.256 71.3575 58.904C71.5815 58.488 71.8455 58.072 72.1495 57.656C72.4535 57.224 72.7575 56.856 73.0615 56.552C73.9575 55.608 74.6055 54.856 75.0055 54.296C75.4055 53.72 75.6055 53.232 75.6055 52.832C75.6055 52.752 75.5975 52.688 75.5815 52.64C75.0535 52.784 74.5575 52.856 74.0935 52.856C73.6615 52.856 73.2455 52.768 72.8455 52.592C72.4455 52.4 72.1175 52.128 71.8615 51.776C71.5895 51.424 71.4535 51.016 71.4535 50.552C71.4535 50.184 71.5175 49.816 71.6455 49.448C71.7735 49.064 71.9335 48.688 72.1255 48.32L72.9415 46.76C73.2135 46.248 73.5175 45.88 73.8535 45.656C74.2055 45.416 74.5815 45.296 74.9815 45.296C75.5255 45.296 76.0055 45.448 76.4215 45.752C76.8375 46.04 77.1895 46.424 77.4775 46.904C77.7655 47.384 77.9815 47.896 78.1255 48.44C78.2695 48.968 78.3415 49.472 78.3415 49.952C78.3415 50.848 78.1655 51.712 77.8135 52.544C77.4775 53.376 77.0215 54.16 76.4455 54.896C75.8695 55.616 75.2375 56.288 74.5495 56.912C74.0855 57.328 73.6615 57.76 73.2775 58.208C72.8935 58.64 72.5655 59.104 72.2935 59.6C72.0535 60.032 71.8695 60.352 71.7415 60.56C71.5975 60.768 71.4855 60.904 71.4055 60.968C71.3255 61.032 71.2295 61.064 71.1175 61.064Z" fill="#141414"/>
<path d="M111.308 60V37.6H125.612V40.704H115.148V47.264H123.692V50.304H115.148V60H111.308ZM134.891 60.384C133.291 60.384 131.872 60.0427 130.635 59.36C129.419 58.656 128.459 57.696 127.755 56.48C127.072 55.2427 126.731 53.8027 126.731 52.16C126.731 50.496 127.072 49.0347 127.755 47.776C128.438 46.5173 129.387 45.536 130.603 44.832C131.84 44.1067 133.27 43.744 134.891 43.744C136.47 43.744 137.846 44.096 139.019 44.8C140.192 45.4827 141.11 46.4 141.771 47.552C142.432 48.704 142.763 50.0053 142.763 51.456C142.763 51.6693 142.752 51.904 142.731 52.16C142.731 52.416 142.72 52.6933 142.699 52.992H129.515V50.528H138.891C138.827 49.376 138.422 48.4693 137.675 47.808C136.928 47.1467 136 46.816 134.891 46.816C134.102 46.816 133.366 46.9973 132.683 47.36C132.022 47.7013 131.488 48.224 131.083 48.928C130.699 49.632 130.507 50.528 130.507 51.616V52.544C130.507 53.5253 130.699 54.368 131.083 55.072C131.467 55.776 131.99 56.32 132.651 56.704C133.312 57.0667 134.048 57.248 134.859 57.248C135.734 57.248 136.47 57.0453 137.067 56.64C137.664 56.2347 138.112 55.7013 138.411 55.04H142.283C142.006 56.064 141.515 56.9813 140.811 57.792C140.128 58.5813 139.286 59.2107 138.283 59.68C137.28 60.1493 136.15 60.384 134.891 60.384ZM145.558 60V37.28H149.366V46.688H149.43C149.984 45.7493 150.71 45.024 151.606 44.512C152.523 44 153.568 43.744 154.742 43.744C156.022 43.744 157.11 44.0213 158.006 44.576C158.923 45.1093 159.627 45.92 160.118 47.008C160.608 48.0747 160.854 49.3973 160.854 50.976V60H157.046V51.36C157.046 49.952 156.758 48.8747 156.182 48.128C155.627 47.36 154.742 46.976 153.526 46.976C152.736 46.976 152.022 47.168 151.382 47.552C150.763 47.936 150.272 48.4907 149.91 49.216C149.568 49.92 149.398 50.784 149.398 51.808V60H145.558ZM164.024 60V44.128H167.384L167.736 47.36H167.8C168.227 46.4427 168.717 45.728 169.272 45.216C169.827 44.6827 170.467 44.3093 171.192 44.096C171.917 43.8613 172.739 43.744 173.656 43.744V47.776H172.6C171.875 47.776 171.213 47.872 170.616 48.064C170.04 48.2347 169.549 48.5013 169.144 48.864C168.739 49.2267 168.419 49.7173 168.184 50.336C167.971 50.9333 167.864 51.6693 167.864 52.544V60H164.024ZM176.157 60V44.128H179.997V60H176.157ZM178.077 41.632C177.373 41.632 176.787 41.4187 176.317 40.992C175.869 40.544 175.645 40 175.645 39.36C175.645 38.6987 175.869 38.1547 176.317 37.728C176.787 37.3013 177.373 37.088 178.077 37.088C178.781 37.088 179.357 37.3013 179.805 37.728C180.275 38.1547 180.509 38.6987 180.509 39.36C180.509 40 180.275 40.544 179.805 40.992C179.357 41.4187 178.781 41.632 178.077 41.632ZM190.208 60.384C188.842 60.384 187.626 60.16 186.56 59.712C185.493 59.2427 184.64 58.6027 184 57.792C183.381 56.9813 183.008 56.0427 182.88 54.976H186.72C186.848 55.4027 187.05 55.808 187.328 56.192C187.605 56.576 187.978 56.8853 188.448 57.12C188.938 57.3333 189.514 57.44 190.176 57.44C190.794 57.44 191.306 57.3547 191.712 57.184C192.117 56.992 192.416 56.7573 192.608 56.48C192.8 56.1813 192.896 55.8613 192.896 55.52C192.896 55.0507 192.757 54.688 192.48 54.432C192.202 54.176 191.797 53.9627 191.264 53.792C190.73 53.6 190.101 53.4187 189.376 53.248C188.714 53.0773 188.032 52.8853 187.328 52.672C186.624 52.4373 185.984 52.16 185.408 51.84C184.832 51.52 184.362 51.104 184 50.592C183.658 50.0587 183.488 49.408 183.488 48.64C183.488 47.7227 183.733 46.8907 184.224 46.144C184.714 45.3973 185.429 44.8107 186.368 44.384C187.306 43.9573 188.437 43.744 189.76 43.744C191.594 43.744 193.066 44.1813 194.176 45.056C195.306 45.9093 195.968 47.1147 196.16 48.672H192.512C192.405 48.032 192.106 47.5413 191.616 47.2C191.146 46.8587 190.517 46.688 189.728 46.688C188.917 46.688 188.288 46.848 187.84 47.168C187.413 47.488 187.2 47.8933 187.2 48.384C187.2 48.704 187.338 48.992 187.616 49.248C187.893 49.4827 188.288 49.6853 188.8 49.856C189.333 50.0267 189.952 50.208 190.656 50.4C191.765 50.656 192.778 50.9547 193.696 51.296C194.613 51.616 195.349 52.0747 195.904 52.672C196.458 53.2693 196.736 54.112 196.736 55.2C196.757 56.2027 196.501 57.0987 195.968 57.888C195.434 58.656 194.677 59.264 193.696 59.712C192.714 60.16 191.552 60.384 190.208 60.384ZM205.906 60C204.818 60 203.868 59.8293 203.058 59.488C202.268 59.1467 201.65 58.5813 201.202 57.792C200.775 57.0027 200.562 55.936 200.562 54.592V47.232H197.842V44.128H200.562L200.978 39.968H204.402V44.128H208.754V47.232H204.402V54.592C204.402 55.4453 204.572 56.032 204.914 56.352C205.255 56.6507 205.852 56.8 206.706 56.8H208.626V60H205.906Z" fill="#141414"/>
<line x1="96" y1="25" x2="96" y2="73" stroke="#141414" stroke-width="2" stroke-linecap="round"/>
</svg>
